<svg id="Logo" xmlns="http://www.w3.org/2000/svg" width="149" height="66.999" viewBox="0 0 149 66.999">
  <path id="Path_9" data-name="Path 9" d="M107.208,353.8a34.406,34.406,0,0,0-9.555,1.372L96.6,358.4a47.756,47.756,0,0,1,20.973-2.26,21.08,21.08,0,0,0-10.365-2.341" transform="translate(-82.429 -320.461)" fill="#cf3339"/>
  <path id="Path_10" data-name="Path 10" d="M103.07,338.2s-3.644-4.2-14.09-4.2a52.873,52.873,0,0,0-9.879,1.049l3.968,3.31c2.024-.565,9.151-2.18,20-.161" transform="translate(-79.1 -316.645)" fill="#cf3339"/>
  <path id="Path_11" data-name="Path 11" d="M95.1,348.469l2.834,2.341c1.215-.323,6.8-1.7,17.734-.242,0,0-4.211-3.067-12.39-3.067a47.4,47.4,0,0,0-8.179.969" transform="translate(-82.144 -319.246)" fill="#cf3339"/>
  <path id="Path_12" data-name="Path 12" d="M94.934,363.271,93.8,366.984c4.778-2.583,9.717-5,20.488-7.023a27.209,27.209,0,0,0-3.239-.161,36.722,36.722,0,0,0-16.115,3.471" transform="translate(-81.897 -321.617)" fill="#cf3339"/>
  <path id="Path_13" data-name="Path 13" d="M159.094,356.5h-3.162c-27.891.242-51.809,6.3-63.241,13.481l-.892,3.471C103.313,365.7,129.42,359,159.905,359c27.323,0,51.322,5.408,64.457,12.028-10.783-7.588-36-14.288-65.268-14.53" transform="translate(-81.516 -320.982)" fill="#cf3339"/>
  <path id="Path_14" data-name="Path 14" d="M109.6,344.49s-4.454-3.39-12.633-3.39a32.672,32.672,0,0,0-9.07,1.292l3,2.5c.081.081,6.721-2.1,18.706-.4" transform="translate(-80.774 -318.014)" fill="#cf3339"/>
  <path id="Path_15" data-name="Path 15" d="M144.949,375.483v-8.314h2.834V366.2H140.9v.969h2.834v8.314Z" transform="translate(-90.798 -322.852)" fill="#00205c"/>
  <path id="Path_16" data-name="Path 16" d="M148.815,372.025a2,2,0,0,1,1.863-1.937,1.736,1.736,0,0,1,1.7,1.937Zm4.7.323c0-1.211-.567-3.148-2.753-3.148-1.943,0-3.158,1.614-3.158,3.633a3.121,3.121,0,0,0,3.32,3.39,5.767,5.767,0,0,0,2.186-.4l-.243-.888a5.15,5.15,0,0,1-1.863.323,2.1,2.1,0,0,1-2.267-2.341h4.7c.081-.081.081-.323.081-.565" transform="translate(-92.067 -323.43)" fill="#00205c"/>
  <path id="Path_17" data-name="Path 17" d="M161.173,369.4h-1.3l-.972,1.453c-.243.323-.4.727-.648,1.13h-.081a11.948,11.948,0,0,0-.648-1.049l-.972-1.453h-1.377l2.267,3.229L155.1,376.1h1.377l.972-1.534c.243-.4.486-.726.729-1.13h0c.243.4.486.807.729,1.13l.972,1.534h1.377l-2.348-3.471Z" transform="translate(-93.487 -323.469)" fill="#00205c"/>
  <path id="Path_18" data-name="Path 18" d="M166.949,372.671v1.13a.726.726,0,0,1-.081.4,1.629,1.629,0,0,1-1.62,1.13,1.061,1.061,0,0,1-1.134-1.13c0-1.372,1.539-1.614,2.834-1.534m-4.049,1.614a1.886,1.886,0,0,0,2.024,1.937,2.445,2.445,0,0,0,2.024-.969h.081l.081.807h1.134a10.257,10.257,0,0,1-.081-1.614v-2.5c0-1.372-.486-2.745-2.51-2.745a4.611,4.611,0,0,0-2.186.565l.243.807a3.273,3.273,0,0,1,1.782-.484,1.376,1.376,0,0,1,1.539,1.534v.161c-2.672,0-4.13.888-4.13,2.5" transform="translate(-94.964 -323.43)" fill="#00205c"/>
  <path id="Path_19" data-name="Path 19" d="M172.643,375.254a3.2,3.2,0,0,1-1.62-.484l-.324.888a4.214,4.214,0,0,0,1.863.484c1.62,0,2.51-.807,2.51-2.018,0-.969-.567-1.534-1.782-2.018-.891-.323-1.3-.565-1.3-1.13,0-.484.4-.888,1.134-.888a2.523,2.523,0,0,1,1.377.4l.324-.888a3.2,3.2,0,0,0-1.62-.4,2.013,2.013,0,0,0-2.267,1.937c0,.807.567,1.453,1.782,1.857.891.323,1.215.646,1.215,1.211,0,.646-.486,1.049-1.3,1.049" transform="translate(-96.44 -323.43)" fill="#00205c"/>
  <path id="Path_20" data-name="Path 20" d="M185.788,372.842c0-1.372-.81-2.1-2.348-2.745-1.3-.484-1.863-.888-1.863-1.776,0-.646.486-1.372,1.782-1.372a4.117,4.117,0,0,1,1.782.4l.324-.969a4.119,4.119,0,0,0-2.024-.484c-1.782,0-3,1.049-3,2.5,0,1.292.972,2.1,2.429,2.664,1.3.484,1.782.969,1.782,1.857,0,.969-.729,1.614-1.943,1.614a4.611,4.611,0,0,1-2.186-.565l-.324.969a4.79,4.79,0,0,0,2.348.565c2.105.081,3.239-1.211,3.239-2.664" transform="translate(-98.238 -322.795)" fill="#00205c"/>
  <path id="Path_21" data-name="Path 21" d="M191.468,370v-.888h-1.7V367.5l-1.215.4v1.211H187.5V370h1.053v3.633a2.358,2.358,0,0,0,.486,1.7,1.713,1.713,0,0,0,1.3.484,3.181,3.181,0,0,0,1.053-.161l-.081-.888a1.8,1.8,0,0,1-.729.081c-.648,0-.891-.484-.891-1.292v-3.633h1.782Z" transform="translate(-99.621 -323.102)" fill="#00205c"/>
  <path id="Path_22" data-name="Path 22" d="M194.215,374.1c0-1.292,1.539-1.534,2.834-1.534v1.13a.726.726,0,0,1-.081.4,1.629,1.629,0,0,1-1.62,1.13c-.648.081-1.134-.323-1.134-1.13m2.834,1.049h0l.162.807h1.134a10.26,10.26,0,0,1-.081-1.614v-2.5c0-1.372-.486-2.745-2.51-2.745a4.611,4.611,0,0,0-2.186.565l.243.807a3.194,3.194,0,0,1,1.7-.484,1.376,1.376,0,0,1,1.539,1.534v.161c-2.591,0-4.049.888-4.049,2.5a1.934,1.934,0,0,0,2.024,1.937,2.174,2.174,0,0,0,2.024-.969" transform="translate(-100.662 -323.41)" fill="#00205c"/>
  <path id="Path_23" data-name="Path 23" d="M202.567,367.4l-1.215.4v1.211H200.3v.888h1.053v3.633a2.339,2.339,0,0,0,.486,1.776,1.713,1.713,0,0,0,1.3.484,3.181,3.181,0,0,0,1.053-.161l-.081-.888a1.8,1.8,0,0,1-.729.081c-.648,0-.891-.484-.891-1.292V369.9h1.7v-.888h-1.7V367.4Z" transform="translate(-102.045 -323.084)" fill="#00205c"/>
  <path id="Path_24" data-name="Path 24" d="M208.7,370.088a1.736,1.736,0,0,1,1.7,1.937h-3.563a2,2,0,0,1,1.862-1.937m2.267,4.843a5.151,5.151,0,0,1-1.863.323,2.1,2.1,0,0,1-2.267-2.341h4.7c0-.161.081-.323.081-.565,0-1.211-.567-3.148-2.753-3.148-1.943,0-3.158,1.614-3.158,3.632a3.121,3.121,0,0,0,3.32,3.39,5.767,5.767,0,0,0,2.186-.4Z" transform="translate(-103.066 -323.43)" fill="#00205c"/>
  <path id="Path_25" data-name="Path 25" d="M126.583,380.4H119.7v1.049h2.834v8.234h1.215v-8.234h2.834Z" transform="translate(-86.786 -325.59)" fill="#00205c"/>
  <path id="Path_26" data-name="Path 26" d="M127.915,386.306a2,2,0,0,1,1.863-1.937,1.736,1.736,0,0,1,1.7,1.937Zm1.943-2.906c-1.943,0-3.158,1.614-3.158,3.633a3.121,3.121,0,0,0,3.32,3.39,5.768,5.768,0,0,0,2.186-.4l-.243-.888a5.15,5.15,0,0,1-1.863.323,2.1,2.1,0,0,1-2.267-2.341h4.7c0-.161.081-.323.081-.565,0-1.211-.567-3.148-2.753-3.148" transform="translate(-88.111 -326.168)" fill="#00205c"/>
  <path id="Path_27" data-name="Path 27" d="M138.344,384.469a2.624,2.624,0,0,1,1.377.323l.243-.969a4.2,4.2,0,0,0-1.7-.323,3.352,3.352,0,0,0-3.563,3.552,3.162,3.162,0,0,0,3.32,3.39,4.673,4.673,0,0,0,1.943-.4l-.243-.888a3.243,3.243,0,0,1-1.458.323,2.339,2.339,0,0,1-2.348-2.5,2.4,2.4,0,0,1,2.429-2.5" transform="translate(-89.625 -326.188)" fill="#00205c"/>
  <path id="Path_28" data-name="Path 28" d="M145.92,382.687a2.689,2.689,0,0,0-1.215.323,2.348,2.348,0,0,0-.891.888h0v-4.2H142.6v9.767h1.215v-4.036a1.194,1.194,0,0,1,.081-.565,1.751,1.751,0,0,1,1.62-1.211c1.134,0,1.539.888,1.539,2.018v3.794h1.215v-3.875c-.081-2.341-1.458-2.906-2.348-2.906" transform="translate(-91.121 -325.455)" fill="#00205c"/>
  <path id="Path_29" data-name="Path 29" d="M154.82,383.4a2.38,2.38,0,0,0-2.186,1.292h0l-.081-1.13H151.5a12.459,12.459,0,0,1,.081,1.776v4.843H152.8v-4.036a1.194,1.194,0,0,1,.081-.565,1.751,1.751,0,0,1,1.62-1.211c1.134,0,1.539.888,1.539,1.937v3.875h1.215v-3.875c-.081-2.341-1.539-2.906-2.429-2.906" transform="translate(-92.805 -326.168)" fill="#00205c"/>
  <path id="Path_30" data-name="Path 30" d="M161.029,380.4a.727.727,0,1,0,0,1.453.747.747,0,0,0,.81-.727.86.86,0,0,0-.81-.727" transform="translate(-94.473 -325.59)" fill="#00205c"/>
  <rect id="Rectangle_73" data-name="Rectangle 73" width="1.215" height="6.7" transform="translate(65.907 57.395)" fill="#00205c"/>
  <path id="Path_31" data-name="Path 31" d="M166.844,384.469a2.625,2.625,0,0,1,1.377.323l.243-.969a4.2,4.2,0,0,0-1.7-.323,3.352,3.352,0,0,0-3.563,3.552,3.162,3.162,0,0,0,3.32,3.39,4.673,4.673,0,0,0,1.943-.4l-.243-.888a3.242,3.242,0,0,1-1.458.323,2.339,2.339,0,0,1-2.348-2.5,2.4,2.4,0,0,1,2.429-2.5" transform="translate(-95.02 -326.188)" fill="#00205c"/>
  <path id="Path_32" data-name="Path 32" d="M174.449,388a.726.726,0,0,1-.081.4,1.629,1.629,0,0,1-1.62,1.13,1.061,1.061,0,0,1-1.134-1.13c0-1.292,1.539-1.534,2.834-1.534Zm1.134-1.857c0-1.372-.486-2.745-2.51-2.745a4.611,4.611,0,0,0-2.186.565l.243.807a3.272,3.272,0,0,1,1.782-.484,1.376,1.376,0,0,1,1.539,1.534v.161c-2.591,0-4.049.888-4.049,2.5a1.934,1.934,0,0,0,2.024,1.937,2.445,2.445,0,0,0,2.024-.969h0l.081.807h1.134a10.26,10.26,0,0,1-.081-1.614v-2.5Z" transform="translate(-96.383 -326.168)" fill="#00205c"/>
  <rect id="Rectangle_74" data-name="Rectangle 74" width="1.215" height="9.767" transform="translate(80.742 54.326)" fill="#00205c"/>
  <path id="Path_33" data-name="Path 33" d="M189.659,381.169a3.748,3.748,0,0,1,1.863.4l.324-.969a5.093,5.093,0,0,0-2.186-.4,4.583,4.583,0,0,0-4.859,4.843,4.31,4.31,0,0,0,4.616,4.682,5.24,5.24,0,0,0,2.429-.484l-.243-.969a4.615,4.615,0,0,1-1.943.4c-2.267,0-3.563-1.453-3.563-3.713a3.383,3.383,0,0,1,3.563-3.794" transform="translate(-99.108 -325.551)" fill="#00205c"/>
  <path id="Path_34" data-name="Path 34" d="M197.22,389.454c-1.215,0-2.024-1.13-2.024-2.583,0-1.292.648-2.583,2.024-2.583,1.458,0,2.024,1.453,2.024,2.583,0,1.534-.891,2.583-2.024,2.583m0-6.054a3.252,3.252,0,0,0-3.32,3.552,3.143,3.143,0,0,0,3.239,3.39,3.244,3.244,0,0,0,3.32-3.552,3.186,3.186,0,0,0-3.239-3.39" transform="translate(-100.831 -326.168)" fill="#00205c"/>
  <rect id="Rectangle_75" data-name="Rectangle 75" width="1.215" height="9.767" transform="translate(100.767 54.326)" fill="#00205c"/>
  <rect id="Rectangle_76" data-name="Rectangle 76" width="1.215" height="9.767" transform="translate(103.604 54.326)" fill="#00205c"/>
  <path id="Path_35" data-name="Path 35" d="M211.015,386.306a2,2,0,0,1,1.863-1.937,1.736,1.736,0,0,1,1.7,1.937Zm1.943-2.906c-1.943,0-3.158,1.614-3.158,3.633a3.121,3.121,0,0,0,3.32,3.39,5.768,5.768,0,0,0,2.186-.4l-.243-.888a5.15,5.15,0,0,1-1.863.323,2.1,2.1,0,0,1-2.267-2.341h4.7c0-.161.081-.323.081-.565,0-1.211-.567-3.148-2.753-3.148" transform="translate(-103.841 -326.168)" fill="#00205c"/>
  <path id="Path_36" data-name="Path 36" d="M222.84,387.455a1.772,1.772,0,0,1-.081.646,1.722,1.722,0,0,1-1.7,1.211c-1.3,0-1.943-1.049-1.943-2.422,0-1.534.81-2.5,2.024-2.5a1.747,1.747,0,0,1,1.7,1.292,1.194,1.194,0,0,1,.081.565v1.211ZM223,384.63h0a2.29,2.29,0,0,0-2.105-1.13c-1.539,0-3,1.292-3,3.552a2.972,2.972,0,0,0,2.834,3.229,2.235,2.235,0,0,0,2.105-1.13h0v.727c0,1.7-.891,2.341-2.186,2.341a4.018,4.018,0,0,1-1.943-.484l-.324.888a4.877,4.877,0,0,0,2.186.565A3.414,3.414,0,0,0,223,392.38a3.863,3.863,0,0,0,.972-3.067v-3.875a11.937,11.937,0,0,1,.081-1.857H223Z" transform="translate(-105.374 -326.188)" fill="#00205c"/>
  <path id="Path_37" data-name="Path 37" d="M228.015,386.306a2,2,0,0,1,1.863-1.937,1.736,1.736,0,0,1,1.7,1.937Zm1.943-2.906c-1.943,0-3.158,1.614-3.158,3.633a3.121,3.121,0,0,0,3.32,3.39,5.768,5.768,0,0,0,2.186-.4l-.243-.888a5.15,5.15,0,0,1-1.863.323,2.1,2.1,0,0,1-2.267-2.341h4.7c0-.161.081-.323.081-.565a2.781,2.781,0,0,0-2.753-3.148" transform="translate(-107.034 -326.168)" fill="#00205c"/>
  <path id="Path_38" data-name="Path 38" d="M236.4,389.242h.648v1.776h.162v-1.776h.648V389H236.4Z" transform="translate(-108.86 -327.246)" fill="#00205c"/>
  <path id="Path_39" data-name="Path 39" d="M239.491,390.7l-.567-1.7H238.6v2.018h.243v-1.7l.486,1.7h.243l.567-1.7v1.7h.162V389h-.324Z" transform="translate(-109.278 -327.246)" fill="#00205c"/>
  <path id="Path_40" data-name="Path 40" d="M136.134,330.9H115.889l-5.749-18.4-4.94,15.741c9.879,4.2,14.738,13.158,15.791,15.337Z" transform="translate(-84.065 -312.5)" fill="#00205c"/>
  <rect id="Rectangle_77" data-name="Rectangle 77" width="24.294" height="4.278" transform="translate(47.838 10.654)" fill="#00205c"/>
  <rect id="Rectangle_78" data-name="Rectangle 78" width="6.235" height="14.449" transform="translate(56.83 18.162)" fill="#00205c"/>
  <path id="Path_41" data-name="Path 41" d="M177.174,341.073h10.851a1.966,1.966,0,0,1,1.7,1.857,1.768,1.768,0,0,1-.567,1.372,2.265,2.265,0,0,1-1.62.646l-17.9-.081v4.52l17.815.081a8.138,8.138,0,0,0,5.83-2.018,5.927,5.927,0,0,0,1.943-4.44,5.8,5.8,0,0,0-1.943-4.44,8.138,8.138,0,0,0-5.83-2.018H176.931a2.381,2.381,0,0,1-1.539-.565,1.923,1.923,0,0,1-.486-.888H169.4a5.813,5.813,0,0,0,1.943,4.036,8.47,8.47,0,0,0,5.831,1.937" transform="translate(-96.18 -316.857)" fill="#00205c"/>
  <path id="Path_42" data-name="Path 42" d="M194.518,325.681l-17.248-.081a8.138,8.138,0,0,0-5.83,2.018,5.374,5.374,0,0,0-1.539,2.341h24.617Z" transform="translate(-96.276 -315.025)" fill="#00205c"/>
  <rect id="Rectangle_79" data-name="Rectangle 79" width="23.646" height="4.278" transform="translate(101.03 10.654)" fill="#00205c"/>
  <rect id="Rectangle_80" data-name="Rectangle 80" width="6.235" height="14.449" transform="translate(109.363 18.162)" fill="#00205c"/>
  <path id="Path_43" data-name="Path 43" d="M237.949,338.713A5.778,5.778,0,0,1,239.407,335h-6.478a9.9,9.9,0,0,0-.729,3.794,10.662,10.662,0,0,0,10.689,10.655H257.06v-4.682H243.7a6.045,6.045,0,0,1-5.749-6.054" transform="translate(-108.061 -316.838)" fill="#00205c"/>
  <path id="Path_44" data-name="Path 44" d="M243.627,325.8h-.243a10.786,10.786,0,0,0-8.584,4.278h22.755V325.8Z" transform="translate(-108.555 -315.064)" fill="#00205c"/>
</svg>
